<svg width="9" height="20" viewBox="0 0 9 20" fill="none" xmlns="http://www.w3.org/2000/svg">
<path d="M8.21016 0C8.59454 0.191797 8.68477 0.511328 8.68399 0.923047C8.67501 6.97461 8.67461 13.0262 8.68399 19.0777C8.68477 19.4895 8.5918 19.807 8.20977 20C5.63165 20 3.05352 20 0.475395 20C0.0988327 19.8148 -0.000776701 19.5094 4.54948e-06 19.0992C0.0101608 13.027 0.0101608 6.9543 0.000395175 0.881641C4.54947e-06 0.477344 0.107426 0.180859 0.475786 0C3.05391 0 5.63204 0 8.21016 0ZM0.673833 9.98008C0.673833 13.027 0.675786 16.0738 0.669145 19.1203C0.668755 19.3063 0.725395 19.3375 0.894536 19.3371C3.11446 19.3316 5.33438 19.3336 7.5543 19.3336C7.6586 19.3336 7.76329 19.3266 7.8668 19.3355C7.97813 19.3449 8.01368 19.3059 8.00938 19.1937C8.00118 18.9793 7.99493 18.7633 8.01094 18.5496C8.02344 18.3789 7.9754 18.3324 7.79922 18.3336C6.37344 18.3418 4.94766 18.3383 3.52188 18.3375C3.44415 18.3375 3.36524 18.3375 3.28868 18.3258C3.10899 18.2973 3.00352 18.1652 3.00938 17.9859C3.01602 17.7809 3.16133 17.6602 3.41133 17.6602C4.78516 17.6594 6.1586 17.6598 7.53243 17.6598C8.00938 17.6598 8.00274 17.6598 8.01094 17.1914C8.01368 17.0383 7.97383 16.9949 7.81797 16.9973C7.14102 17.0063 6.46407 17.0016 5.78672 17.0004C5.69649 17.0004 5.60313 17.0129 5.51993 16.9637C5.38321 16.8828 5.31524 16.7645 5.34766 16.6055C5.38555 16.4199 5.50899 16.3305 5.69571 16.3301C6.31407 16.3289 6.93282 16.3297 7.55118 16.3297C8.00821 16.3297 7.99805 16.3293 8.01251 15.8828C8.01836 15.6992 7.96172 15.6617 7.78751 15.6625C6.34219 15.6695 4.89688 15.6668 3.45157 15.6656C3.37422 15.6656 3.29024 15.6711 3.2211 15.6441C3.0543 15.5797 2.98868 15.4453 3.01485 15.2691C3.04063 15.0977 3.17266 15.0004 3.38399 15.0004C4.76407 14.9996 6.14415 15.0008 7.52462 14.9988C7.6793 14.9984 7.88321 15.0664 7.9754 14.9711C8.07579 14.8676 7.98946 14.6613 8.00899 14.5016C8.02618 14.3602 7.96915 14.3305 7.83633 14.332C7.2961 14.3395 6.75586 14.3352 6.21524 14.3352C6.05899 14.3352 5.90274 14.3359 5.74649 14.3352C5.49219 14.3336 5.33204 14.2016 5.33477 13.9961C5.33711 13.7973 5.49102 13.668 5.73555 13.6672C6.33438 13.6656 6.9336 13.6668 7.53243 13.6668C8.0086 13.6668 8.00235 13.6668 8.01055 13.1965C8.01329 13.0477 7.97969 13.0012 7.82149 13.002C6.37618 13.0086 4.93086 13.0059 3.48555 13.0059C3.42696 13.0059 3.36758 13.0102 3.30977 13.0027C3.12579 12.9797 3.00508 12.8387 3.00938 12.6566C3.01329 12.4797 3.12735 12.357 3.31172 12.3371C3.37618 12.3301 3.4418 12.3312 3.50665 12.3312C4.84766 12.3309 6.18868 12.3309 7.53008 12.3309C8.0086 12.3309 8.00079 12.3309 8.01094 11.8605C8.01446 11.7008 7.96329 11.6699 7.81524 11.6715C7.1254 11.6789 6.43516 11.6738 5.74493 11.6758C5.58321 11.6762 5.44688 11.6312 5.37188 11.4793C5.25235 11.2371 5.42891 10.9969 5.73594 10.9941C6.33477 10.9887 6.93399 10.9926 7.53282 10.9926C8.01016 10.9926 8.00313 10.9926 8.01094 10.5199C8.01368 10.3676 7.96602 10.3395 7.82461 10.3402C6.3793 10.3453 4.93399 10.3434 3.48868 10.3434C3.40469 10.3434 3.32032 10.3492 3.2379 10.318C3.09493 10.2641 3.01407 10.1672 3.00977 10.0129C3.00508 9.85039 3.08204 9.74336 3.23282 9.68437C3.31485 9.65234 3.39883 9.65781 3.48321 9.65781C4.8375 9.65742 6.19141 9.65781 7.54571 9.65781C8.00938 9.65781 8.00079 9.65781 8.01094 9.19336C8.01446 9.02852 7.95469 9.00391 7.81094 9.00547C7.16016 9.01211 6.50899 9.0082 5.85782 9.0082C5.80586 9.0082 5.75352 9.01055 5.70157 9.00703C5.47735 8.99102 5.32774 8.84766 5.33438 8.65742C5.34141 8.46406 5.49336 8.32773 5.71993 8.32695C6.33204 8.32383 6.94376 8.32578 7.55586 8.32578C8.00743 8.32578 8.00079 8.32578 8.01016 7.87188C8.01368 7.71289 7.97383 7.66484 7.8086 7.66563C6.37657 7.67227 4.94415 7.66953 3.51172 7.66914C3.4336 7.66914 3.3543 7.67188 3.27813 7.6582C3.10899 7.62813 3.01797 7.52031 3.01016 7.34883C2.99961 7.12305 3.14766 6.99531 3.4211 6.99531C4.78829 6.99453 6.15547 6.99492 7.52266 6.99492C8.00938 6.99492 8.00391 6.99492 8.00977 6.51602C8.01133 6.37383 7.98047 6.32812 7.8293 6.32969C7.13282 6.33867 6.43633 6.33477 5.73946 6.3332C5.49258 6.33281 5.34063 6.20781 5.33477 6.0082C5.32852 5.80234 5.48907 5.66562 5.7418 5.66523C6.33438 5.66445 6.92657 5.66602 7.51915 5.66445C7.67422 5.66406 7.88126 5.71563 7.97149 5.63672C8.07813 5.54336 7.98829 5.33047 8.00821 5.17109C8.02501 5.03594 7.98008 4.9957 7.84024 4.99727C7.05274 5.0043 6.26485 5.00078 5.47696 5.00078C4.77383 5.00078 4.07071 5.00234 3.36758 5C3.11211 4.99922 2.95547 4.81133 3.01875 4.57969C3.07188 4.38555 3.21915 4.33242 3.4086 4.33281C4.78243 4.33594 6.15586 4.33437 7.52969 4.33437C8.00977 4.33437 8.00274 4.33438 8.01055 3.84805C8.0129 3.69766 7.96993 3.66602 7.82618 3.66797C7.16876 3.67617 6.51133 3.67148 5.85352 3.67148C5.80782 3.67148 5.76251 3.67227 5.7168 3.67148C5.49102 3.6668 5.33907 3.53516 5.33438 3.34062C5.32969 3.14844 5.48126 3.00312 5.70586 3.00195C6.31797 2.99844 6.92969 3.00078 7.5418 3.00039C8.00743 3.00039 7.99922 3 8.01094 2.53867C8.01524 2.37305 7.9668 2.33711 7.80704 2.33789C6.36836 2.34453 4.92969 2.3418 3.49063 2.34141C3.4254 2.34141 3.35938 2.34648 3.29571 2.33633C3.12149 2.3082 3.00743 2.16914 3.00938 1.99648C3.01094 1.81992 3.12188 1.6957 3.30665 1.67148C3.37735 1.66211 3.44922 1.66328 3.52071 1.66328C4.95313 1.66289 6.38516 1.66055 7.81758 1.6668C7.97344 1.66758 8.01993 1.62539 8.00977 1.47188C7.99649 1.27109 7.99493 1.06758 8.01016 0.866797C8.02227 0.703516 7.9711 0.663281 7.8086 0.663672C5.51055 0.669141 3.2125 0.669922 0.914458 0.663281C0.727739 0.662891 0.667583 0.69375 0.667973 0.9C0.676176 3.92578 0.673833 6.95313 0.673833 9.98008Z" fill="#070606"/>
</svg>
