<svg width="197" height="150" viewBox="0 0 197 150" fill="none" xmlns="http://www.w3.org/2000/svg">
<path d="M157.94 146.03C157.68 149.73 122.11 150.23 78.5 147.14C34.89 144.05 -0.250022 138.54 0.00997846 134.84C0.269978 131.14 35.84 130.64 79.45 133.73C123.06 136.82 158.2 142.33 157.94 146.03Z" fill="#F0F0F0"/>
<path d="M196.28 4.7L161.77 2L129.8 98.5L25.24 90.31L7.41003 15.17L153.9 25.62" stroke="#068282" stroke-width="3" stroke-miterlimit="10" stroke-linejoin="round"/>
<path d="M129.8 98.5L131 98.59C136.94 99.06 141.63 101.14 140.44 116.35C139.97 122.29 134.78 126.74 128.83 126.27L25.13 118.14" stroke="#068282" stroke-width="3" stroke-miterlimit="10" stroke-linejoin="round"/>
<path d="M109.42 134.22C108.99 139.69 113.08 144.48 118.55 144.91C124.02 145.34 128.81 141.25 129.24 135.78C129.67 130.31 125.58 125.52 120.11 125.09C114.64 124.66 109.85 128.75 109.42 134.22Z" fill="#068282"/>
<path d="M29.13 127.92C28.7 133.39 32.79 138.18 38.26 138.61C43.73 139.04 48.52 134.95 48.95 129.48C49.38 124.01 45.29 119.22 39.82 118.79C34.34 118.36 29.56 122.45 29.13 127.92Z" fill="#068282"/>
<path d="M123.27 23.91L114.48 96.61" stroke="#068282" stroke-width="3" stroke-miterlimit="10" stroke-linejoin="round"/>
<path d="M101.91 22.23L94.66 95.06" stroke="#068282" stroke-width="3" stroke-miterlimit="10" stroke-linejoin="round"/>
<path d="M80.5601 20.56L74.8401 93.51" stroke="#068282" stroke-width="3" stroke-miterlimit="10" stroke-linejoin="round"/>
<path d="M59.2 18.89L55.02 91.95" stroke="#068282" stroke-width="3" stroke-miterlimit="10" stroke-linejoin="round"/>
<path d="M36.3101 17.09L35.2101 90.4" stroke="#068282" stroke-width="3" stroke-miterlimit="10" stroke-linejoin="round"/>
<path d="M146.01 47.35L12.5901 36.89" stroke="#068282" stroke-width="3" stroke-miterlimit="10" stroke-linejoin="round"/>
<path d="M136.51 74.28L20.3401 65.17" stroke="#068282" stroke-width="3" stroke-miterlimit="10" stroke-linejoin="round"/>
</svg>
