<svg width="20" height="9" viewBox="0 0 20 9" fill="none" xmlns="http://www.w3.org/2000/svg">
<path d="M0 0.473829C0.191797 0.0894542 0.511328 -0.000780296 0.923047 9.53674e-07C6.97461 0.00898533 13.0262 0.00937595 19.0777 9.53674e-07C19.4895 -0.000780296 19.807 0.0921881 20 0.474219C20 3.05234 20 5.63047 20 8.2086C19.8148 8.58516 19.5094 8.68477 19.0992 8.68399C13.027 8.67383 6.9543 8.67383 0.881641 8.6836C0.477344 8.68399 0.180859 8.57656 0 8.2082C0 5.63008 0 3.05195 0 0.473829ZM9.98008 8.01016C13.027 8.01016 16.0738 8.0082 19.1203 8.01485C19.3063 8.01524 19.3375 7.9586 19.3371 7.78945C19.3316 5.56953 19.3336 3.34961 19.3336 1.12969C19.3336 1.02539 19.3266 0.920704 19.3355 0.817188C19.3449 0.70586 19.3059 0.670313 19.1937 0.67461C18.9793 0.682813 18.7633 0.689063 18.5496 0.673047C18.3789 0.660547 18.3324 0.708594 18.3336 0.884766C18.3418 2.31055 18.3383 3.73633 18.3375 5.16211C18.3375 5.23984 18.3375 5.31875 18.3258 5.39531C18.2973 5.575 18.1652 5.68047 17.9859 5.67461C17.7809 5.66797 17.6602 5.52266 17.6602 5.27266C17.6594 3.89883 17.6598 2.52539 17.6598 1.15156C17.6598 0.67461 17.6598 0.68125 17.1914 0.673047C17.0383 0.670313 16.9949 0.710157 16.9973 0.866016C17.0062 1.54297 17.0016 2.21992 17.0004 2.89727C17.0004 2.9875 17.0129 3.08086 16.9637 3.16406C16.8828 3.30078 16.7645 3.36875 16.6055 3.33633C16.4199 3.29844 16.3305 3.175 16.3301 2.98828C16.3289 2.36992 16.3297 1.75117 16.3297 1.13281C16.3297 0.675782 16.3293 0.685938 15.8828 0.671485C15.6992 0.665626 15.6617 0.722266 15.6625 0.896485C15.6695 2.3418 15.6668 3.78711 15.6656 5.23242C15.6656 5.30977 15.6711 5.39375 15.6441 5.46289C15.5797 5.62969 15.4453 5.69531 15.2691 5.66914C15.0977 5.64336 15.0004 5.51133 15.0004 5.3C14.9996 3.91992 15.0008 2.53984 14.9988 1.15938C14.9984 1.00469 15.0664 0.800782 14.9711 0.708594C14.8676 0.608204 14.6613 0.694531 14.5016 0.675C14.3602 0.657813 14.3305 0.714844 14.332 0.847657C14.3395 1.38789 14.3352 1.92813 14.3352 2.46875C14.3352 2.625 14.3359 2.78125 14.3352 2.9375C14.3336 3.1918 14.2016 3.35195 13.9961 3.34922C13.7973 3.34688 13.668 3.19297 13.6672 2.94844C13.6656 2.34961 13.6668 1.75039 13.6668 1.15156C13.6668 0.675391 13.6668 0.681641 13.1965 0.673438C13.0477 0.670704 13.0012 0.704298 13.002 0.862501C13.0086 2.30781 13.0059 3.75313 13.0059 5.19844C13.0059 5.25703 13.0102 5.31641 13.0027 5.37422C12.9797 5.5582 12.8387 5.67891 12.6566 5.67461C12.4797 5.6707 12.357 5.55664 12.3371 5.37227C12.3301 5.30781 12.3312 5.24219 12.3312 5.17735C12.3309 3.83633 12.3309 2.49531 12.3309 1.15391C12.3309 0.675391 12.3309 0.683203 11.8605 0.673047C11.7008 0.669531 11.6699 0.720703 11.6715 0.86875C11.6789 1.55859 11.6738 2.24883 11.6758 2.93906C11.6762 3.10078 11.6312 3.23711 11.4793 3.31211C11.2371 3.43164 10.9969 3.25508 10.9941 2.94805C10.9887 2.34922 10.9926 1.75 10.9926 1.15117C10.9926 0.673829 10.9926 0.68086 10.5199 0.673047C10.3676 0.670313 10.3395 0.717969 10.3402 0.859375C10.3453 2.30469 10.3434 3.75 10.3434 5.19531C10.3434 5.2793 10.3492 5.36367 10.318 5.44609C10.2641 5.58906 10.1672 5.66992 10.0129 5.67422C9.85039 5.67891 9.74336 5.60195 9.68437 5.45117C9.65234 5.36914 9.65781 5.28516 9.65781 5.20078C9.65742 3.84649 9.65781 2.49258 9.65781 1.13828C9.65781 0.67461 9.65781 0.683203 9.19336 0.673047C9.02852 0.669531 9.00391 0.729297 9.00547 0.873047C9.01211 1.52383 9.0082 2.175 9.0082 2.82617C9.0082 2.87813 9.01055 2.93047 9.00703 2.98242C8.99102 3.20664 8.84766 3.35625 8.65742 3.34961C8.46406 3.34258 8.32773 3.19063 8.32695 2.96406C8.32383 2.35195 8.32578 1.74024 8.32578 1.12813C8.32578 0.676563 8.32578 0.683204 7.87188 0.673829C7.71289 0.670313 7.66484 0.710157 7.66563 0.875391C7.67227 2.30742 7.66953 3.73985 7.66914 5.17227C7.66914 5.25039 7.67188 5.32969 7.6582 5.40586C7.62813 5.575 7.52031 5.66602 7.34883 5.67383C7.12305 5.68438 6.99531 5.53633 6.99531 5.26289C6.99453 3.8957 6.99492 2.52852 6.99492 1.16133C6.99492 0.67461 6.99492 0.680079 6.51602 0.674219C6.37383 0.672657 6.32812 0.703516 6.32969 0.854688C6.33867 1.55117 6.33477 2.24766 6.3332 2.94453C6.33281 3.19141 6.20781 3.34336 6.0082 3.34922C5.80234 3.35547 5.66563 3.19492 5.66523 2.94219C5.66445 2.34961 5.66602 1.75742 5.66445 1.16484C5.66406 1.00977 5.71563 0.802734 5.63672 0.7125C5.54336 0.605859 5.33047 0.695704 5.17109 0.675782C5.03594 0.658985 4.9957 0.703907 4.99727 0.84375C5.0043 1.63125 5.00078 2.41914 5.00078 3.20703C5.00078 3.91016 5.00234 4.61328 5 5.31641C4.99922 5.57188 4.81133 5.72852 4.57969 5.66524C4.38555 5.61211 4.33242 5.46484 4.33281 5.27539C4.33594 3.90156 4.33437 2.52813 4.33437 1.1543C4.33437 0.67422 4.33438 0.681251 3.84805 0.673438C3.69766 0.671094 3.66602 0.714063 3.66797 0.857813C3.67617 1.51523 3.67148 2.17266 3.67148 2.83047C3.67148 2.87617 3.67227 2.92148 3.67148 2.96719C3.6668 3.19297 3.53516 3.34492 3.34062 3.34961C3.14844 3.3543 3.00312 3.20273 3.00195 2.97813C2.99844 2.36602 3.00078 1.7543 3.00039 1.14219C3.00039 0.676563 3 0.684766 2.53867 0.673047C2.37305 0.66875 2.33711 0.717188 2.33789 0.876954C2.34453 2.31563 2.3418 3.7543 2.34141 5.19336C2.34141 5.25859 2.34648 5.32461 2.33633 5.38828C2.3082 5.5625 2.16914 5.67656 1.99648 5.67461C1.81992 5.67305 1.6957 5.56211 1.67148 5.37735C1.66211 5.30664 1.66328 5.23477 1.66328 5.16328C1.66289 3.73086 1.66055 2.29883 1.6668 0.866406C1.66758 0.710547 1.62539 0.664063 1.47187 0.674219C1.27109 0.6875 1.06758 0.689063 0.866797 0.673829C0.703516 0.66172 0.663281 0.712891 0.663672 0.875391C0.669141 3.17344 0.669922 5.47149 0.663281 7.76953C0.662891 7.95625 0.69375 8.01641 0.9 8.01602C3.92578 8.00781 6.95313 8.01016 9.98008 8.01016Z" fill="#070606"/>
</svg>
